<svg width="189" height="29" viewBox="0 0 189 29" fill="none" xmlns="http://www.w3.org/2000/svg">
<path d="M14.639 28.429C12.637 28.429 10.752 28.065 8.984 27.337C7.242 26.609 5.721 25.608 4.421 24.334C3.121 23.034 2.094 21.526 1.34 19.81C0.612 18.068 0.248 16.196 0.248 14.194C0.248 12.192 0.625 10.333 1.379 8.617C2.133 6.901 3.173 5.406 4.499 4.132C5.851 2.832 7.424 1.831 9.218 1.129C11.012 0.401 12.936 0.0369997 14.99 0.0369997C17.356 0.0369997 19.501 0.466 21.425 1.324C23.375 2.182 24.987 3.365 26.261 4.873L22.088 9.046C21.204 7.902 20.164 7.044 18.968 6.472C17.772 5.9 16.42 5.614 14.912 5.614C13.3 5.614 11.857 5.978 10.583 6.706C9.309 7.408 8.308 8.409 7.58 9.709C6.878 10.983 6.527 12.478 6.527 14.194C6.527 15.91 6.878 17.418 7.58 18.718C8.282 20.018 9.244 21.032 10.466 21.76C11.688 22.488 13.092 22.852 14.678 22.852C16.29 22.852 17.655 22.553 18.773 21.955C19.917 21.331 20.788 20.447 21.386 19.303C22.01 18.133 22.322 16.716 22.322 15.052L26.378 17.782L14.093 17.587V12.4H28.562V13.297C28.562 16.599 27.964 19.381 26.768 21.643C25.598 23.879 23.96 25.569 21.854 26.713C19.774 27.857 17.369 28.429 14.639 28.429ZM45.797 28.468C43.717 28.468 41.793 28.104 40.025 27.376C38.283 26.648 36.749 25.634 35.423 24.334C34.097 23.034 33.07 21.526 32.342 19.81C31.614 18.068 31.25 16.196 31.25 14.194C31.25 12.166 31.614 10.294 32.342 8.578C33.07 6.862 34.084 5.367 35.384 4.093C36.684 2.793 38.205 1.792 39.947 1.09C41.715 0.361998 43.639 -0.00200212 45.719 -0.00200212C47.773 -0.00200212 49.671 0.361998 51.413 1.09C53.181 1.792 54.715 2.793 56.015 4.093C57.341 5.367 58.368 6.875 59.096 8.617C59.824 10.333 60.188 12.205 60.188 14.233C60.188 16.235 59.824 18.107 59.096 19.849C58.368 21.565 57.354 23.073 56.054 24.373C54.754 25.647 53.22 26.648 51.452 27.376C49.71 28.104 47.825 28.468 45.797 28.468ZM45.719 22.891C47.357 22.891 48.787 22.527 50.009 21.799C51.257 21.071 52.219 20.057 52.895 18.757C53.571 17.431 53.909 15.91 53.909 14.194C53.909 12.894 53.714 11.724 53.324 10.684C52.934 9.618 52.375 8.708 51.647 7.954C50.919 7.174 50.048 6.589 49.034 6.199C48.046 5.783 46.941 5.575 45.719 5.575C44.081 5.575 42.638 5.939 41.39 6.667C40.168 7.369 39.219 8.37 38.543 9.67C37.867 10.944 37.529 12.452 37.529 14.194C37.529 15.494 37.724 16.677 38.114 17.743C38.504 18.809 39.05 19.732 39.752 20.512C40.48 21.266 41.351 21.851 42.365 22.267C43.379 22.683 44.497 22.891 45.719 22.891ZM71.5123 28L60.9043 0.465999H67.4563L75.5293 22.735H72.8383L81.0283 0.465999H87.5023L76.7773 28H71.5123ZM96.4918 28V0.855998H102.615V28H96.4918ZM87.8728 5.809V0.465999H111.234V5.809H87.8728ZM114.653 28V0.465999H120.776V28H114.653ZM119.333 28V22.696H134.426V28H119.333ZM119.333 16.495V11.386H133.061V16.495H119.333ZM119.333 5.731V0.465999H134.231V5.731H119.333ZM151.217 28.429C149.163 28.429 147.252 28.078 145.484 27.376C143.742 26.648 142.208 25.634 140.882 24.334C139.582 23.034 138.568 21.526 137.84 19.81C137.112 18.068 136.748 16.196 136.748 14.194C136.748 12.192 137.112 10.333 137.84 8.617C138.568 6.875 139.582 5.367 140.882 4.093C142.182 2.819 143.703 1.831 145.445 1.129C147.213 0.401 149.124 0.0369997 151.178 0.0369997C153.362 0.0369997 155.299 0.387999 156.989 1.09C158.705 1.792 160.2 2.754 161.474 3.976L157.379 8.11C156.651 7.33 155.767 6.719 154.727 6.277C153.713 5.835 152.53 5.614 151.178 5.614C149.982 5.614 148.877 5.822 147.863 6.238C146.875 6.628 146.017 7.2 145.289 7.954C144.587 8.708 144.028 9.618 143.612 10.684C143.222 11.75 143.027 12.92 143.027 14.194C143.027 15.494 143.222 16.677 143.612 17.743C144.028 18.809 144.587 19.719 145.289 20.473C146.017 21.227 146.875 21.812 147.863 22.228C148.877 22.644 149.982 22.852 151.178 22.852C152.582 22.852 153.804 22.631 154.844 22.189C155.884 21.747 156.781 21.136 157.535 20.356L161.669 24.49C160.343 25.712 158.822 26.674 157.106 27.376C155.416 28.078 153.453 28.429 151.217 28.429ZM165.041 28V0.465999H171.164V28H165.041ZM182.084 28V0.465999H188.246V28H182.084ZM168.707 16.495V11.191H184.112V16.495H168.707Z" fill="black"/>
</svg>
